<svg xmlns="http://www.w3.org/2000/svg" viewBox="9.6 -0.2 709.3 69.0" width="709" height="69"><title>Meridian Freight</title><path d="M9.6 0V-68.7H33.86L49.25 -33.84Q49.95 -32.22 51.09 -29.38Q52.22 -26.53 53.45 -23.4Q54.68 -20.26 55.66 -17.69H56.36Q57.24 -19.97 58.42 -22.96Q59.6 -25.94 60.78 -28.84Q61.97 -31.73 62.77 -33.65L78.16 -68.7H101.89V0H86.27V-41.48Q86.27 -43.21 86.32 -45.35Q86.37 -47.49 86.47 -49.58Q86.57 -51.67 86.67 -53.19H85.87Q85.36 -51.66 84.55 -49.52Q83.75 -47.37 82.94 -45.24Q82.13 -43.1 81.43 -41.48L63.07 0H47.97L29.51 -41.48Q28.6 -43.53 27.75 -45.72Q26.89 -47.92 26.23 -49.9Q25.57 -51.88 25.07 -53.19H24.27Q24.37 -51.97 24.42 -49.99Q24.47 -48.01 24.52 -45.82Q24.57 -43.63 24.57 -41.48V0ZM128.1 0V-68.7H197.77V-55.81H143.72V-41.37H191.74V-28.51H143.72V-12.89H198.57V0ZM221.7 0V-68.7H276.33Q283.64 -68.7 288.32 -65.74Q292.99 -62.78 295.3 -57.92Q297.61 -53.05 297.61 -47.15Q297.61 -41.01 294.47 -35.66Q291.32 -30.31 284.75 -27.3L299.31 0H281.74L269.23 -24.37H237.31V0ZM237.31 -37.17H271.93Q276.55 -37.17 279.07 -39.87Q281.59 -42.58 281.59 -46.83Q281.59 -49.69 280.5 -51.72Q279.41 -53.74 277.24 -54.78Q275.07 -55.81 271.93 -55.81H237.31ZM320.8 0V-68.7H336.41V0ZM362.6 0V-68.7H399.35Q411.96 -68.7 421.02 -64.75Q430.08 -60.8 434.93 -53.15Q439.79 -45.5 439.79 -34.3Q439.79 -23.21 434.93 -15.56Q430.08 -7.9 421.02 -3.95Q411.96 0 399.35 0ZM378.21 -12.89H398.52Q403.96 -12.89 408.54 -14.19Q413.13 -15.48 416.53 -18.02Q419.93 -20.55 421.8 -24.36Q423.67 -28.17 423.67 -33.2V-35.51Q423.67 -40.54 421.8 -44.35Q419.93 -48.16 416.53 -50.69Q413.13 -53.23 408.54 -54.52Q403.96 -55.81 398.52 -55.81H378.21ZM463 0V-68.7H478.61V0ZM497.53 0 531.88 -68.7H549.52L583.87 0H566.74L560.35 -13.12H519.95L513.56 0ZM526.02 -25.63H554.28L546.42 -42.2Q545.93 -43.29 545 -45.4Q544.07 -47.52 543.13 -49.74Q542.2 -51.97 541.46 -53.62Q540.72 -55.27 540.6 -55.43H539.8Q538.92 -53.44 537.78 -50.86Q536.65 -48.28 535.61 -45.89Q534.57 -43.5 533.88 -42.1ZM602.8 0V-68.7H617.41L654.86 -32.93Q656.13 -31.85 657.9 -29.99Q659.67 -28.13 661.58 -26.17Q663.5 -24.21 664.88 -22.64H665.69Q665.6 -24.8 665.45 -27.92Q665.31 -31.03 665.31 -33.04V-68.7H680.28V0H665.97L628.5 -36.09Q625.83 -38.65 622.9 -41.76Q619.98 -44.86 618.2 -46.74H617.49Q617.58 -45.43 617.68 -42.21Q617.77 -38.99 617.77 -34.86V0Z" transform="translate(0 68.6)" fill="#10151b"/><circle cx="710.4" cy="60.1" r="8.5" fill="#a34a22"/></svg>